<?xml version="1.0" encoding="utf-8"?>
<!-- Generator: Adobe Illustrator 16.0.0, SVG Export Plug-In . SVG Version: 6.00 Build 0)  -->
<!DOCTYPE svg PUBLIC "-//W3C//DTD SVG 1.1//EN" "http://www.w3.org/Graphics/SVG/1.1/DTD/svg11.dtd">
<svg version="1.1" id="Layer_1" xmlns="http://www.w3.org/2000/svg" xmlns:xlink="http://www.w3.org/1999/xlink" x="0px" y="0px"
	 width="182.125px" height="18.797px" viewBox="57.875 15.602 182.125 18.797"
	 enable-background="new 57.875 15.602 182.125 18.797" xml:space="preserve">
<g>
	<path fill="#2C80AA" d="M162.944,23.468v2.882h-9.112v4.855h10.41v2.881h-13.578V23.468H162.944z M150.664,15.913h13.449v2.882
		h-13.449V15.913z M139.748,24.922c1.146,0,2.059-0.272,2.734-0.822c0.679-0.545,1.016-1.289,1.016-2.229v-0.052
		c0-0.991-0.328-1.744-0.99-2.254c-0.658-0.515-1.588-0.77-2.787-0.77h-4.66h-3.167v-2.882h8.101c1.142,0,2.154,0.16,3.037,0.48
		c0.883,0.321,1.619,0.766,2.207,1.337c0.484,0.502,0.856,1.082,1.117,1.739c0.259,0.658,0.389,1.385,0.389,2.181v0.052
		c0,0.745-0.107,1.415-0.324,2.012s-0.516,1.125-0.896,1.583c-0.381,0.459-0.834,0.848-1.362,1.168s-1.112,0.566-1.753,0.74
		l4.907,6.879h-3.765l-4.479-6.334h-0.053h-1.367l-1.33-2.83H139.748L139.748,24.922z M119.691,34.372
		c-1.177,0-2.241-0.168-3.193-0.506c-0.952-0.337-1.765-0.844-2.44-1.519c-0.675-0.676-1.194-1.511-1.557-2.506
		c-0.364-0.995-0.545-2.15-0.545-3.466V15.913h3.167v10.333c0,1.696,0.411,2.986,1.229,3.869s1.947,1.324,3.393,1.324
		c1.428,0,2.548-0.425,3.366-1.272c0.818-0.849,1.229-2.112,1.229-3.791V15.913h3.167v10.308c0,1.35-0.187,2.535-0.559,3.557
		s-0.895,1.873-1.57,2.557c-0.675,0.684-1.493,1.195-2.453,1.532C121.963,34.204,120.886,34.372,119.691,34.372 M101.544,34.398
		c-1.333,0-2.562-0.242-3.687-0.728c-1.125-0.484-2.103-1.146-2.93-1.985c-0.826-0.84-1.475-1.83-1.947-2.973
		c-0.471-1.143-0.705-2.363-0.705-3.661V25c0-1.298,0.229-2.514,0.692-3.648c0.463-1.133,1.112-2.129,1.947-2.985
		c0.835-0.857,1.826-1.532,2.968-2.025c1.143-0.493,2.405-0.74,3.79-0.74c0.831,0,1.588,0.069,2.272,0.208
		c0.684,0.139,1.311,0.333,1.883,0.584c0.57,0.251,1.099,0.55,1.583,0.896c0.485,0.347,0.943,0.728,1.376,1.143l-2.051,2.362
		c-0.727-0.675-1.497-1.221-2.311-1.636c-0.813-0.416-1.739-0.623-2.778-0.623c-0.865,0-1.666,0.169-2.401,0.506
		c-0.735,0.338-1.372,0.797-1.908,1.376c-0.537,0.58-0.952,1.259-1.247,2.038c-0.293,0.779-0.441,1.61-0.441,2.492V25
		c0,0.883,0.147,1.718,0.441,2.506c0.295,0.787,0.71,1.475,1.247,2.063c0.536,0.588,1.172,1.052,1.908,1.39
		c0.735,0.336,1.536,0.506,2.401,0.506c1.108,0,2.06-0.213,2.856-0.637c0.796-0.424,1.583-0.998,2.362-1.727l2.051,2.077
		c-0.467,0.503-0.957,0.948-1.467,1.338s-1.06,0.727-1.648,1.013c-0.589,0.285-1.233,0.502-1.935,0.648
		C103.167,34.324,102.392,34.398,101.544,34.398 M87.966,23.468v2.882h-9.113v4.855h10.412v2.881H75.685V23.468H87.966z
		 M75.685,15.913h13.449v2.882H75.685V15.913z M65.457,34.347c-1.402,0-2.743-0.237-4.024-0.714
		c-1.281-0.477-2.467-1.208-3.557-2.193l1.921-2.285c0.882,0.762,1.774,1.346,2.674,1.752c0.899,0.407,1.921,0.61,3.063,0.61
		c0.987,0,1.77-0.208,2.35-0.623s0.87-0.97,0.87-1.661V29.18c0-0.329-0.056-0.619-0.169-0.869c-0.112-0.251-0.32-0.489-0.624-0.715
		c-0.307-0.225-0.723-0.432-1.25-0.623c-0.532-0.189-1.22-0.381-2.068-0.57c-0.974-0.226-1.834-0.48-2.592-0.766
		c-0.753-0.286-1.389-0.632-1.9-1.039c-0.511-0.407-0.904-0.904-1.172-1.493s-0.402-1.298-0.402-2.129v-0.052
		c0-0.779,0.155-1.493,0.462-2.142c0.312-0.649,0.736-1.203,1.277-1.662c0.541-0.459,1.19-0.818,1.952-1.078
		c0.757-0.259,1.588-0.39,2.488-0.39c1.333,0,2.531,0.195,3.596,0.584s2.064,0.957,2.999,1.701l-1.713,2.414
		c-0.831-0.605-1.653-1.068-2.467-1.389c-0.813-0.32-1.636-0.48-2.466-0.48c-0.935,0-1.662,0.208-2.181,0.623
		c-0.52,0.416-0.779,0.926-0.779,1.532v0.052c0,0.346,0.061,0.653,0.182,0.922c0.121,0.268,0.342,0.51,0.662,0.727
		c0.325,0.217,0.766,0.42,1.329,0.61c0.567,0.191,1.281,0.39,2.151,0.597c0.952,0.242,1.8,0.511,2.536,0.805
		c0.735,0.294,1.35,0.654,1.834,1.078c0.485,0.424,0.857,0.917,1.108,1.479s0.376,1.217,0.376,1.96v0.052
		c0,0.849-0.16,1.61-0.476,2.285c-0.32,0.674-0.762,1.246-1.329,1.713c-0.562,0.469-1.246,0.823-2.039,1.064
		C67.283,34.225,66.409,34.347,65.457,34.347"/>
	<path fill="#A7AAB2" d="M238.702,23.468v2.882h-9.112v4.855H240v2.881h-13.578V23.468H238.702z M226.422,15.913h13.449v2.882
		h-13.449V15.913z M214.064,18.873h-5.764v-2.96h14.746v2.96h-5.764v15.214h-3.219V18.873L214.064,18.873z M196.202,34.398
		c-1.402,0-2.683-0.246-3.843-0.74c-1.16-0.493-2.154-1.164-2.985-2.012s-1.479-1.84-1.947-2.973
		c-0.468-1.134-0.701-2.341-0.701-3.622V25c0-1.281,0.233-2.488,0.701-3.622c0.468-1.134,1.125-2.129,1.973-2.986
		c0.849-0.857,1.853-1.536,3.012-2.039c1.159-0.501,2.44-0.752,3.843-0.752s2.682,0.246,3.842,0.74
		c1.16,0.493,2.155,1.164,2.986,2.012c0.83,0.848,1.479,1.839,1.947,2.973c0.467,1.134,0.701,2.341,0.701,3.622V25
		c0,1.28-0.234,2.488-0.701,3.621c-0.468,1.135-1.125,2.129-1.973,2.986c-0.849,0.856-1.854,1.535-3.012,2.037
		C198.885,34.147,197.604,34.398,196.202,34.398 M196.254,31.465c0.896,0,1.718-0.169,2.471-0.506
		c0.748-0.338,1.389-0.797,1.926-1.377c0.531-0.58,0.951-1.259,1.25-2.037c0.303-0.779,0.455-1.61,0.455-2.493V25
		c0-0.882-0.152-1.718-0.455-2.505c-0.299-0.787-0.723-1.471-1.264-2.051c-0.545-0.58-1.194-1.042-1.951-1.389
		c-0.762-0.346-1.588-0.52-2.483-0.52s-1.718,0.169-2.471,0.506c-0.749,0.337-1.389,0.796-1.926,1.376
		c-0.532,0.58-0.952,1.259-1.251,2.038c-0.303,0.779-0.454,1.61-0.454,2.493V25c0,0.883,0.151,1.719,0.454,2.506
		c0.299,0.787,0.723,1.471,1.264,2.051c0.545,0.58,1.195,1.043,1.951,1.389C194.531,31.291,195.358,31.465,196.254,31.465
		 M166.501,15.913h3.531l5.478,13.968l5.453-13.968h3.451l-7.555,18.304h-2.803L166.501,15.913z"/>
</g>
</svg>
