<svg version="1.1" id="Layer_1" xmlns="http://www.w3.org/2000/svg" xmlns:xlink="http://www.w3.org/1999/xlink" x="0px" y="0px" width="240px" height="50px" viewBox="0 0 1706.758 355.135" enable-background="new 0 0 312 65" xml:space="preserve">
<g>
	<path fill-rule="evenodd" clip-rule="evenodd" fill="#2C80AA" d="M1158.776,166.673v20.497h-64.803v34.525h74.034v20.492h-96.56
		v-75.514H1158.776z M1071.448,112.946h95.641v20.495h-95.641V112.946z M993.814,177.014c8.15,0,14.644-1.938,19.444-5.848
		c4.831-3.878,7.231-9.17,7.231-15.848v-0.368c0-7.049-2.34-12.402-7.045-16.033c-4.678-3.66-11.297-5.477-19.82-5.477h-33.14
		H937.96v-20.495h57.604c8.123,0,15.322,1.138,21.602,3.416c6.279,2.278,11.513,5.445,15.694,9.508
		c3.448,3.57,6.093,7.694,7.941,12.369c1.844,4.679,2.769,9.849,2.769,15.511v0.368c0,5.295-0.769,10.064-2.311,14.311
		c-1.536,4.246-3.662,7.999-6.367,11.26c-2.71,3.264-5.939,6.032-9.691,8.309c-3.756,2.277-7.909,4.033-12.466,5.262l34.897,48.928
		h-26.771l-31.851-45.049h-0.37h-9.726l-9.458-20.125H993.814z M851.183,244.217c-8.367,0-15.936-1.195-22.709-3.598
		c-6.768-2.4-12.551-6-17.354-10.801c-4.801-4.801-8.493-10.74-11.075-17.818c-2.587-7.078-3.879-15.291-3.879-24.646v-74.407
		h22.525v73.485c0,12.061,2.922,21.23,8.738,27.508c5.818,6.279,13.848,9.418,24.127,9.418c10.153,0,18.123-3.016,23.938-9.047
		c5.816-6.033,8.74-15.018,8.74-26.957v-74.407h22.525v73.3c0,9.602-1.327,18.031-3.972,25.293
		c-2.647,7.264-6.368,13.324-11.166,18.186c-4.804,4.863-10.622,8.494-17.45,10.895
		C867.339,243.021,859.677,244.217,851.183,244.217 M722.128,244.404c-9.478,0-18.216-1.723-26.215-5.172
		c-8.003-3.445-14.954-8.156-20.836-14.125c-5.876-5.967-10.49-13.014-13.846-21.137c-3.353-8.123-5.015-16.801-5.015-26.034v-0.369
		c0-9.232,1.63-17.879,4.922-25.941c3.294-8.061,7.909-15.14,13.848-21.232c5.942-6.095,12.987-10.895,21.11-14.402
		c8.126-3.508,17.107-5.262,26.953-5.262c5.909,0,11.297,0.492,16.158,1.476c4.864,0.987,9.324,2.37,13.388,4.155
		c4.058,1.785,7.815,3.911,11.259,6.368c3.448,2.463,6.707,5.172,9.788,8.126l-14.587,16.8c-5.171-4.8-10.646-8.678-16.433-11.632
		c-5.782-2.953-12.369-4.431-19.757-4.431c-6.153,0-11.846,1.201-17.077,3.6c-5.229,2.401-9.756,5.664-13.568,9.788
		c-3.816,4.122-6.771,8.953-8.866,14.492c-2.089,5.54-3.137,11.45-3.137,17.724v0.37c0,6.278,1.048,12.217,3.137,17.819
		c2.095,5.598,5.05,10.492,8.866,14.676c3.812,4.184,8.339,7.477,13.568,9.879c5.231,2.398,10.924,3.6,17.077,3.6
		c7.881,0,14.649-1.51,20.312-4.523c5.662-3.016,11.259-7.105,16.8-12.279l14.587,14.77c-3.322,3.572-6.804,6.74-10.433,9.512
		c-3.63,2.768-7.539,5.168-11.723,7.199c-4.187,2.031-8.771,3.57-13.758,4.613C733.669,243.881,728.158,244.404,722.128,244.404
		 M625.568,166.673v20.497H560.76v34.525h74.042v20.492h-96.567v-75.514H625.568z M538.234,112.946h95.641v20.495h-95.641V112.946z
		 M465.494,244.037c-9.972,0-19.508-1.693-28.618-5.078c-9.11-3.387-17.541-8.59-25.296-15.602l13.664-16.25
		c6.277,5.416,12.617,9.57,19.018,12.465c6.399,2.893,13.664,4.34,21.784,4.34c7.018,0,12.587-1.479,16.71-4.432
		c4.121-2.955,6.186-6.896,6.186-11.818v-0.369c0-2.34-0.4-4.4-1.201-6.184c-0.798-1.783-2.276-3.479-4.433-5.078
		c-2.182-1.602-5.139-3.078-8.892-4.432c-3.783-1.354-8.677-2.707-14.707-4.062c-6.924-1.6-13.047-3.416-18.433-5.445
		c-5.357-2.032-9.876-4.493-13.511-7.386c-3.63-2.892-6.431-6.432-8.337-10.615c-1.907-4.185-2.861-9.231-2.861-15.142v-0.368
		c0-5.539,1.105-10.618,3.289-15.231c2.22-4.616,5.234-8.556,9.081-11.818c3.846-3.263,8.463-5.815,13.878-7.662
		c5.383-1.845,11.292-2.771,17.694-2.771c9.476,0,17.999,1.386,25.568,4.155c7.571,2.771,14.68,6.803,21.326,12.095l-12.186,17.169
		c-5.909-4.307-11.755-7.599-17.541-9.878c-5.785-2.276-11.632-3.416-17.538-3.416c-6.645,0-11.818,1.476-15.508,4.43
		c-3.695,2.956-5.539,6.587-5.539,10.895v0.37c0,2.461,0.428,4.648,1.29,6.556c0.863,1.905,2.433,3.629,4.707,5.168
		c2.312,1.541,5.448,2.986,9.448,4.338c4.032,1.355,9.107,2.771,15.296,4.245c6.766,1.723,12.799,3.633,18.03,5.725
		c5.231,2.093,9.602,4.648,13.047,7.665c3.448,3.016,6.093,6.52,7.879,10.523c1.783,3.998,2.675,8.648,2.675,13.939v0.367
		c0,6.033-1.136,11.451-3.383,16.25c-2.277,4.797-5.418,8.863-9.448,12.186c-4.002,3.324-8.863,5.848-14.498,7.57
		C478.479,243.172,472.265,244.037,465.494,244.037"></path>
	<path fill-rule="evenodd" clip-rule="evenodd" fill="#A7AAB2" d="M1697.529,166.673v20.495h-64.807v34.527h74.035v20.492h-96.561
		v-75.514H1697.529z M1610.197,112.946h95.641v20.495h-95.641V112.946z M1522.314,133.995h-40.987v-21.048h104.866v21.048h-40.988
		v108.193h-22.891V133.995z M1395.29,244.404c-9.972,0-19.082-1.754-27.326-5.262c-8.249-3.51-15.324-8.277-21.233-14.309
		s-10.523-13.078-13.848-21.141c-3.322-8.062-4.985-16.646-4.985-25.756v-0.369c0-9.107,1.663-17.695,4.985-25.755
		c3.324-8.065,8.002-15.14,14.031-21.232c6.033-6.095,13.171-10.926,21.418-14.497c8.246-3.566,17.356-5.354,27.323-5.354
		c9.972,0,19.077,1.752,27.329,5.262c8.249,3.507,15.321,8.279,21.23,14.311c5.909,6.03,10.523,13.077,13.849,21.138
		c3.322,8.063,4.984,16.647,4.984,25.756v0.37c0,9.106-1.662,17.694-4.984,25.754c-3.325,8.066-8.002,15.139-14.032,21.234
		c-6.032,6.092-13.174,10.924-21.415,14.492C1414.367,242.621,1405.26,244.404,1395.29,244.404 M1395.655,223.541
		c6.37,0,12.219-1.201,17.573-3.6c5.322-2.4,9.877-5.662,13.692-9.787c3.786-4.123,6.771-8.955,8.892-14.492
		c2.156-5.537,3.234-11.447,3.234-17.725v-0.369c0-6.276-1.078-12.218-3.234-17.818c-2.121-5.598-5.136-10.461-8.982-14.586
		c-3.879-4.122-8.496-7.415-13.878-9.876c-5.415-2.46-11.294-3.694-17.662-3.694c-6.372,0-12.216,1.201-17.571,3.6
		c-5.324,2.401-9.876,5.664-13.694,9.788c-3.783,4.122-6.771,8.953-8.894,14.491c-2.153,5.541-3.231,11.45-3.231,17.726v0.37
		c0,6.278,1.078,12.217,3.231,17.819c2.123,5.602,5.139,10.463,8.984,14.586c3.879,4.123,8.496,7.414,13.879,9.875
		C1383.409,222.309,1389.288,223.541,1395.655,223.541 M1184.072,112.946h25.11l38.955,99.333l38.774-99.333h24.553l-53.726,130.165
		h-19.938L1184.072,112.946z"></path>
	<g>
		<polygon fill-rule="evenodd" clip-rule="evenodd" fill="#888C97" points="111.837,161.424 83.877,145.282 111.837,129.139 		"></polygon>
		<polygon fill-rule="evenodd" clip-rule="evenodd" fill="#7D828E" points="111.838,161.424 139.798,145.281 111.838,129.139 		"></polygon>
		<polygon fill-rule="evenodd" clip-rule="evenodd" fill="#C7C8CE" points="307.556,209.853 279.597,193.71 307.556,177.567 		"></polygon>
		<polygon fill-rule="evenodd" clip-rule="evenodd" fill="#BCBEC5" points="279.597,225.995 307.556,209.853 279.597,193.71 		"></polygon>
		<polygon fill-rule="evenodd" clip-rule="evenodd" fill="#B2B4BC" points="307.556,242.138 279.597,225.995 307.556,209.853 		"></polygon>
		<polygon fill-rule="evenodd" clip-rule="evenodd" fill="#A7AAB3" points="279.597,258.28 307.556,242.138 279.597,225.995 		"></polygon>
		<polygon fill-rule="evenodd" clip-rule="evenodd" fill="#DCDDE0" points="307.557,145.283 279.597,129.141 307.557,112.998 		"></polygon>
		<polygon fill-rule="evenodd" clip-rule="evenodd" fill="#D1D3D7" points="279.598,161.425 307.558,145.283 279.598,129.141 		"></polygon>
		<polygon fill-rule="evenodd" clip-rule="evenodd" fill="#DCDDE0" points="335.517,161.425 307.557,145.283 335.517,129.141 		"></polygon>
		<polygon fill-rule="evenodd" clip-rule="evenodd" fill="#D1D3D7" points="307.557,209.853 335.517,193.71 307.557,177.567 		"></polygon>
		<polygon fill-rule="evenodd" clip-rule="evenodd" fill="#C7C8CE" points="335.516,225.995 307.556,209.853 335.516,193.71 		"></polygon>
		<polygon fill-rule="evenodd" clip-rule="evenodd" fill="#BCBEC5" points="307.557,242.138 335.517,225.995 307.557,209.853 		"></polygon>
		<polygon fill-rule="evenodd" clip-rule="evenodd" fill="#F1F1F2" points="335.517,129.14 307.557,112.997 335.517,96.855 		"></polygon>
		<polygon fill-rule="evenodd" clip-rule="evenodd" fill="#E6E7E9" points="307.558,145.283 335.518,129.141 307.558,112.998 		"></polygon>
		<polygon fill-rule="evenodd" clip-rule="evenodd" fill="#737784" points="251.637,306.707 223.677,290.564 251.637,274.423 		"></polygon>
		<polygon fill-rule="evenodd" clip-rule="evenodd" fill="#6A6E7A" points="223.677,322.85 251.637,306.707 223.677,290.564 		"></polygon>
		<polygon fill-rule="evenodd" clip-rule="evenodd" fill="#616570" points="195.718,306.707 223.678,322.85 223.678,290.564 		"></polygon>
		<polygon fill-rule="evenodd" clip-rule="evenodd" fill="#585B65" points="195.717,338.992 195.717,306.707 223.677,322.85 		"></polygon>
		<polygon fill-rule="evenodd" clip-rule="evenodd" fill="#4F525B" points="167.758,322.85 195.718,338.993 195.718,306.708 		"></polygon>
		<polygon fill-rule="evenodd" clip-rule="evenodd" fill="#464850" points="167.757,355.135 167.757,322.85 195.716,338.993 		"></polygon>
		<polygon fill-rule="evenodd" clip-rule="evenodd" fill="#3C3F46" points="139.798,338.992 167.758,355.135 167.758,322.85 		"></polygon>
		<polygon fill-rule="evenodd" clip-rule="evenodd" fill="#737784" points="223.677,290.564 195.717,274.423 223.677,258.279 		"></polygon>
		<polygon fill-rule="evenodd" clip-rule="evenodd" fill="#6A6E7A" points="195.717,306.707 223.677,290.564 195.717,274.422 		"></polygon>
		<polygon fill-rule="evenodd" clip-rule="evenodd" fill="#616570" points="167.758,290.564 195.718,306.708 195.718,274.423 		"></polygon>
		<polygon fill-rule="evenodd" clip-rule="evenodd" fill="#585B65" points="167.757,322.85 167.757,290.564 195.717,306.708 		"></polygon>
		<polygon fill-rule="evenodd" clip-rule="evenodd" fill="#4F525B" points="139.798,306.707 167.758,322.85 167.758,290.564 		"></polygon>
		<polygon fill-rule="evenodd" clip-rule="evenodd" fill="#464850" points="139.797,338.992 139.797,306.707 167.758,322.85 		"></polygon>
		<polygon fill-rule="evenodd" clip-rule="evenodd" fill="#3C3F46" points="111.838,322.85 139.798,338.993 139.798,306.708 		"></polygon>
		<polygon fill-rule="evenodd" clip-rule="evenodd" fill="#9DA0A9" points="251.637,242.138 279.597,258.279 279.597,225.994 		"></polygon>
		<polygon fill-rule="evenodd" clip-rule="evenodd" fill="#9296A0" points="251.637,274.422 251.637,242.138 279.597,258.279 		"></polygon>
		<polygon fill-rule="evenodd" clip-rule="evenodd" fill="#888C97" points="223.677,258.279 251.637,274.423 251.637,242.138 		"></polygon>
		<polygon fill-rule="evenodd" clip-rule="evenodd" fill="#7D818E" points="223.677,290.564 223.677,258.279 251.637,274.422 		"></polygon>
		<polygon fill-rule="evenodd" clip-rule="evenodd" fill="#B2B4BC" points="335.516,258.28 307.556,242.138 335.516,225.995 		"></polygon>
		<polygon fill-rule="evenodd" clip-rule="evenodd" fill="#A7AAB3" points="307.557,274.423 335.517,258.279 307.557,242.138 		"></polygon>
		<polygon fill-rule="evenodd" clip-rule="evenodd" fill="#9DA0A9" points="279.597,258.28 307.557,274.423 307.557,242.138 		"></polygon>
		<polygon fill-rule="evenodd" clip-rule="evenodd" fill="#9296A0" points="279.596,290.565 279.596,258.28 307.556,274.422 		"></polygon>
		<polygon fill-rule="evenodd" clip-rule="evenodd" fill="#888C97" points="251.637,274.423 279.597,290.565 279.597,258.279 		"></polygon>
		<polygon fill-rule="evenodd" clip-rule="evenodd" fill="#7D818E" points="251.637,306.708 251.637,274.423 279.597,290.564 		"></polygon>
		<polygon fill-rule="evenodd" clip-rule="evenodd" fill="#80B7D5" points="27.959,209.853 55.919,193.71 27.959,177.567 		"></polygon>
		<polygon fill-rule="evenodd" clip-rule="evenodd" fill="#63A6CB" points="55.918,225.995 27.959,209.853 55.918,193.71 		"></polygon>
		<polygon fill-rule="evenodd" clip-rule="evenodd" fill="#4595C2" points="27.959,242.138 55.919,225.996 27.959,209.853 		"></polygon>
		<polygon fill-rule="evenodd" clip-rule="evenodd" fill="#63A6CB" points="55.918,258.28 27.959,242.138 55.918,225.995 		"></polygon>
		<polygon fill-rule="evenodd" clip-rule="evenodd" fill="#9EC8DF" points="27.959,145.283 55.919,129.14 27.959,112.998 		"></polygon>
		<polygon fill-rule="evenodd" clip-rule="evenodd" fill="#8FBFDA" points="55.919,161.426 27.959,145.284 55.919,129.141 		"></polygon>
		<polygon fill-rule="evenodd" clip-rule="evenodd" fill="#9EC8DF" points="-0.001,161.426 27.958,145.284 -0.001,129.141 		"></polygon>
		<polygon fill-rule="evenodd" clip-rule="evenodd" fill="#8FBFDA" points="27.958,209.853 -0.002,193.71 27.958,177.567 		"></polygon>
		<polygon fill-rule="evenodd" clip-rule="evenodd" fill="#80B7D5" points="-0.001,225.995 27.959,209.854 -0.001,193.71 		"></polygon>
		<polygon fill-rule="evenodd" clip-rule="evenodd" fill="#63A6CB" points="27.958,242.138 -0.002,225.996 27.958,209.853 		"></polygon>
		<polygon fill-rule="evenodd" clip-rule="evenodd" fill="#BBD8E9" points="-0.001,129.141 27.958,112.998 -0.001,96.855 		"></polygon>
		<polygon fill-rule="evenodd" clip-rule="evenodd" fill="#ACD0E4" points="27.959,145.283 0,129.141 27.959,112.998 		"></polygon>
		<polygon fill-rule="evenodd" clip-rule="evenodd" fill="#3C8BB7" points="83.878,306.707 111.838,290.564 83.878,274.423 		"></polygon>
		<polygon fill-rule="evenodd" clip-rule="evenodd" fill="#2E698A" points="111.838,290.564 139.797,274.423 111.838,258.279 		"></polygon>
		<polygon fill-rule="evenodd" clip-rule="evenodd" fill="#549EC6" points="83.877,242.138 55.918,258.279 55.918,225.994 		"></polygon>
		<polygon fill-rule="evenodd" clip-rule="evenodd" fill="#4595C2" points="83.878,274.422 83.878,242.138 55.917,258.279 		"></polygon>
		<polygon fill-rule="evenodd" clip-rule="evenodd" fill="#2E698A" points="111.837,258.279 83.877,274.423 83.877,242.138 		"></polygon>
		<polygon fill-rule="evenodd" clip-rule="evenodd" fill="#3780A8" points="111.837,290.564 111.837,258.279 83.877,274.422 		"></polygon>
		<polygon fill-rule="evenodd" clip-rule="evenodd" fill="#4595C2" points="-0.001,258.28 27.959,242.138 -0.001,225.995 		"></polygon>
		<polygon fill-rule="evenodd" clip-rule="evenodd" fill="#63A6CB" points="27.958,274.423 -0.002,258.279 27.958,242.138 		"></polygon>
		<polygon fill-rule="evenodd" clip-rule="evenodd" fill="#549EC6" points="55.918,258.28 27.958,274.423 27.958,242.138 		"></polygon>
		<polygon fill-rule="evenodd" clip-rule="evenodd" fill="#4595C2" points="55.918,290.565 55.918,258.28 27.959,274.422 		"></polygon>
		<polygon fill-rule="evenodd" clip-rule="evenodd" fill="#549EC6" points="83.878,274.423 55.917,290.565 55.917,258.279 		"></polygon>
		<polygon fill-rule="evenodd" clip-rule="evenodd" fill="#4595C2" points="83.878,306.708 83.878,274.423 55.918,290.564 		"></polygon>
		<polygon fill-rule="evenodd" clip-rule="evenodd" fill="#337599" points="223.677,225.995 195.717,209.853 223.677,193.71 		"></polygon>
		<polygon fill-rule="evenodd" clip-rule="evenodd" fill="#2E698A" points="195.718,242.138 223.678,225.995 195.718,209.853 		"></polygon>
		<polygon fill-rule="evenodd" clip-rule="evenodd" fill="#295E7C" points="167.758,225.995 195.718,242.137 195.718,209.853 		"></polygon>
		<polygon fill-rule="evenodd" clip-rule="evenodd" fill="#24536D" points="167.757,258.28 167.757,225.995 195.717,242.138 		"></polygon>
		<polygon fill-rule="evenodd" clip-rule="evenodd" fill="#1F485E" points="139.798,242.138 167.758,258.279 167.758,225.995 		"></polygon>
		<polygon fill-rule="evenodd" clip-rule="evenodd" fill="#24536D" points="139.798,274.423 139.798,242.138 167.758,258.279 		"></polygon>
		<polygon fill-rule="evenodd" clip-rule="evenodd" fill="#295E7C" points="111.838,258.28 139.797,274.423 139.797,242.138 		"></polygon>
		<polygon fill-rule="evenodd" clip-rule="evenodd" fill="#337599" points="195.717,209.853 167.757,193.71 195.717,177.567 		"></polygon>
		<polygon fill-rule="evenodd" clip-rule="evenodd" fill="#2E698A" points="167.758,225.995 195.718,209.853 167.758,193.71 		"></polygon>
		<polygon fill-rule="evenodd" clip-rule="evenodd" fill="#295E7C" points="139.798,209.853 167.758,225.995 167.758,193.71 		"></polygon>
		<polygon fill-rule="evenodd" clip-rule="evenodd" fill="#24536D" points="139.797,242.138 139.797,209.853 167.758,225.995 		"></polygon>
		<polygon fill-rule="evenodd" clip-rule="evenodd" fill="#1F485E" points="111.838,225.995 139.797,242.137 139.797,209.853 		"></polygon>
		<polygon fill-rule="evenodd" clip-rule="evenodd" fill="#24536D" points="111.838,258.279 111.838,225.995 139.798,242.138 		"></polygon>
		<polygon fill-rule="evenodd" clip-rule="evenodd" fill="#295E7C" points="83.878,242.138 111.838,258.279 111.838,225.995 		"></polygon>
		<polygon fill-rule="evenodd" clip-rule="evenodd" fill="#549EC6" points="223.679,129.14 251.639,145.282 251.639,112.998 		"></polygon>
		<polygon fill-rule="evenodd" clip-rule="evenodd" fill="#4595C2" points="223.678,161.425 223.678,129.14 251.638,145.283 		"></polygon>
		<polygon fill-rule="evenodd" clip-rule="evenodd" fill="#3C8BB7" points="195.719,145.283 223.679,161.425 223.679,129.14 		"></polygon>
		<polygon fill-rule="evenodd" clip-rule="evenodd" fill="#3780A8" points="195.718,209.853 195.718,177.567 223.678,193.709 		"></polygon>
		<polygon fill-rule="evenodd" clip-rule="evenodd" fill="#3C8BB7" points="223.677,193.71 251.637,209.853 251.637,177.567 		"></polygon>
		<polygon fill-rule="evenodd" clip-rule="evenodd" fill="#3780A8" points="223.677,225.995 223.677,193.71 251.637,209.853 		"></polygon>
		<polygon fill-rule="evenodd" clip-rule="evenodd" fill="#CAE1ED" points="335.517,64.57 307.558,48.428 335.517,32.285 		"></polygon>
		<polygon fill-rule="evenodd" clip-rule="evenodd" fill="#BBD8E9" points="307.558,80.712 335.517,64.57 307.558,48.427 		"></polygon>
		<polygon fill-rule="evenodd" clip-rule="evenodd" fill="#ACD0E4" points="279.598,64.57 307.558,80.712 307.558,48.428 		"></polygon>
		<polygon fill-rule="evenodd" clip-rule="evenodd" fill="#9EC8DF" points="279.598,96.855 279.598,64.57 307.558,80.713 		"></polygon>
		<polygon fill-rule="evenodd" clip-rule="evenodd" fill="#8FBFDA" points="251.638,80.712 279.598,96.854 279.598,64.569 		"></polygon>
		<polygon fill-rule="evenodd" clip-rule="evenodd" fill="#80B7D5" points="251.638,112.998 251.638,80.712 279.598,96.855 		"></polygon>
		<polygon fill-rule="evenodd" clip-rule="evenodd" fill="#71AED0" points="223.679,96.855 251.639,112.997 251.639,80.713 		"></polygon>
		<polygon fill-rule="evenodd" clip-rule="evenodd" fill="#CAE1ED" points="307.558,48.427 279.597,32.285 307.558,16.142 		"></polygon>
		<polygon fill-rule="evenodd" clip-rule="evenodd" fill="#BBD8E9" points="279.598,64.57 307.558,48.428 279.598,32.285 		"></polygon>
		<polygon fill-rule="evenodd" clip-rule="evenodd" fill="#ACD0E4" points="251.638,48.427 279.598,64.569 279.598,32.284 		"></polygon>
		<polygon fill-rule="evenodd" clip-rule="evenodd" fill="#9EC8DF" points="251.638,80.712 251.638,48.427 279.598,64.57 		"></polygon>
		<polygon fill-rule="evenodd" clip-rule="evenodd" fill="#8FBFDA" points="223.679,64.57 251.639,80.712 251.639,48.428 		"></polygon>
		<polygon fill-rule="evenodd" clip-rule="evenodd" fill="#80B7D5" points="223.678,96.854 223.678,64.57 251.638,80.713 		"></polygon>
		<polygon fill-rule="evenodd" clip-rule="evenodd" fill="#71AED0" points="195.719,80.712 223.679,96.854 223.679,64.569 		"></polygon>
		<polygon fill-rule="evenodd" clip-rule="evenodd" fill="#E7F2F7" points="307.558,16.142 335.518,32.285 335.518,0 		"></polygon>
		<polygon fill-rule="evenodd" clip-rule="evenodd" fill="#D9E9F2" points="307.558,48.427 307.558,16.142 335.518,32.285 		"></polygon>
		<polygon fill-rule="evenodd" clip-rule="evenodd" fill="#DCDDE0" points="0,64.57 27.96,48.428 0,32.285 		"></polygon>
		<polygon fill-rule="evenodd" clip-rule="evenodd" fill="#D1D3D7" points="27.959,80.712 -0.001,64.57 27.959,48.427 		"></polygon>
		<polygon fill-rule="evenodd" clip-rule="evenodd" fill="#C7C8CE" points="55.919,64.57 27.959,80.712 27.959,48.428 		"></polygon>
		<polygon fill-rule="evenodd" clip-rule="evenodd" fill="#BCBEC5" points="55.919,96.855 55.919,64.57 27.959,80.713 		"></polygon>
		<polygon fill-rule="evenodd" clip-rule="evenodd" fill="#B2B4BC" points="83.879,80.712 55.919,96.854 55.919,64.569 		"></polygon>
		<polygon fill-rule="evenodd" clip-rule="evenodd" fill="#9CA0A9" points="83.879,112.998 83.879,80.712 55.919,96.855 		"></polygon>
		<polygon fill-rule="evenodd" clip-rule="evenodd" fill="#9296A0" points="111.839,96.855 83.879,112.997 83.879,80.713 		"></polygon>
		<polygon fill-rule="evenodd" clip-rule="evenodd" fill="#DCDDE0" points="27.96,48.427 55.92,32.285 27.96,16.142 		"></polygon>
		<polygon fill-rule="evenodd" clip-rule="evenodd" fill="#D1D3D7" points="55.919,64.57 27.959,48.428 55.919,32.285 		"></polygon>
		<polygon fill-rule="evenodd" clip-rule="evenodd" fill="#C7C8CE" points="83.879,48.427 55.919,64.569 55.919,32.284 		"></polygon>
		<polygon fill-rule="evenodd" clip-rule="evenodd" fill="#BCBEC5" points="83.879,80.712 83.879,48.427 55.919,64.57 		"></polygon>
		<polygon fill-rule="evenodd" clip-rule="evenodd" fill="#B2B4BC" points="111.839,64.57 83.879,80.712 83.879,48.428 		"></polygon>
		<polygon fill-rule="evenodd" clip-rule="evenodd" fill="#9CA0A9" points="111.839,96.854 111.839,64.57 83.879,80.713 		"></polygon>
		<polygon fill-rule="evenodd" clip-rule="evenodd" fill="#9296A0" points="139.798,80.712 111.838,96.854 111.838,64.569 		"></polygon>
		<polygon fill-rule="evenodd" clip-rule="evenodd" fill="#F1F1F2" points="27.959,16.142 0,32.285 0,0 		"></polygon>
		<polygon fill-rule="evenodd" clip-rule="evenodd" fill="#E6E7E9" points="27.959,48.427 27.959,16.142 -0.001,32.285 		"></polygon>
		<polygon fill-rule="evenodd" clip-rule="evenodd" fill="#6A6E7A" points="83.878,209.853 111.839,193.709 83.878,177.567 		"></polygon>
		<polygon fill-rule="evenodd" clip-rule="evenodd" fill="#888C97" points="111.839,129.14 83.879,112.998 111.839,96.855 		"></polygon>
		<polygon fill-rule="evenodd" clip-rule="evenodd" fill="#7D828E" points="83.879,145.282 111.839,129.14 83.879,112.997 		"></polygon>
		<polygon fill-rule="evenodd" clip-rule="evenodd" fill="#737884" points="139.798,145.282 111.838,129.14 139.798,112.997 		"></polygon>
		<polygon fill-rule="evenodd" clip-rule="evenodd" fill="#888C97" points="139.798,112.998 111.838,96.855 139.798,80.712 		"></polygon>
		<polygon fill-rule="evenodd" clip-rule="evenodd" fill="#7D828E" points="111.839,129.14 139.799,112.998 111.839,96.855 		"></polygon>
		<polygon fill-rule="evenodd" clip-rule="evenodd" fill="#63A6CB" points="223.679,129.14 251.639,112.998 223.679,96.855 		"></polygon>
		<polygon fill-rule="evenodd" clip-rule="evenodd" fill="#4595C2" points="195.719,145.282 223.679,129.14 195.719,112.997 		"></polygon>
		<polygon fill-rule="evenodd" clip-rule="evenodd" fill="#63A6CB" points="195.719,112.998 223.679,96.855 195.719,80.712 		"></polygon>
		<polygon fill-rule="evenodd" clip-rule="evenodd" fill="#549EC6" points="223.679,129.14 195.718,112.998 223.679,96.855 		"></polygon>
		<polygon fill-rule="evenodd" clip-rule="evenodd" fill="#4595C2" points="195.719,177.566 195.719,145.282 223.679,161.425 		"></polygon>
		<polygon fill-rule="evenodd" clip-rule="evenodd" fill="#3C8BB7" points="223.679,161.425 251.639,177.567 251.639,145.282 		"></polygon>
		<polygon fill-rule="evenodd" clip-rule="evenodd" fill="#4595C2" points="223.679,193.71 223.679,161.425 251.639,177.567 		"></polygon>
		<polygon fill-rule="evenodd" clip-rule="evenodd" fill="#3C8BB7" points="223.678,193.71 195.718,177.567 223.678,161.425 		"></polygon>
		<polygon fill-rule="evenodd" clip-rule="evenodd" fill="#6A6E7A" points="111.838,193.709 139.798,177.567 111.838,161.424 		"></polygon>
		<polygon fill-rule="evenodd" clip-rule="evenodd" fill="#737884" points="111.838,193.71 83.878,177.566 111.838,161.424 		"></polygon>
		<polygon fill-rule="evenodd" clip-rule="evenodd" fill="#7D828E" points="83.878,177.566 111.838,161.425 83.878,145.282 		"></polygon>
		<polygon fill-rule="evenodd" clip-rule="evenodd" fill="#737884" points="139.797,177.566 111.837,161.425 139.797,145.282 		"></polygon>
		<polygon fill-rule="evenodd" clip-rule="evenodd" fill="#80B7D5" points="27.959,177.567 55.919,161.426 27.959,145.283 		"></polygon>
		<polygon fill-rule="evenodd" clip-rule="evenodd" fill="#8FBFDA" points="27.959,177.567 0,161.425 27.959,145.283 		"></polygon>
		<polygon fill-rule="evenodd" clip-rule="evenodd" fill="#63A6CB" points="55.919,193.711 27.959,177.569 55.919,161.426 		"></polygon>
		<polygon fill-rule="evenodd" clip-rule="evenodd" fill="#80B7D5" points="-0.001,193.711 27.958,177.569 -0.001,161.426 		"></polygon>
		<polygon fill-rule="evenodd" clip-rule="evenodd" fill="#C7C8CE" points="307.558,177.567 279.597,161.426 307.558,145.283 		"></polygon>
		<polygon fill-rule="evenodd" clip-rule="evenodd" fill="#D1D3D7" points="307.558,177.567 335.517,161.425 307.558,145.283 		"></polygon>
		<polygon fill-rule="evenodd" clip-rule="evenodd" fill="#BCBEC5" points="279.598,193.71 307.558,177.567 279.598,161.425 		"></polygon>
		<polygon fill-rule="evenodd" clip-rule="evenodd" fill="#C7C8CE" points="335.517,193.71 307.558,177.567 335.517,161.426 		"></polygon>
		<polygon fill-rule="evenodd" clip-rule="evenodd" fill="#888C97" points="111.837,161.424 83.877,145.282 111.837,129.139 		"></polygon>
		<polygon fill-rule="evenodd" clip-rule="evenodd" fill="#7D828E" points="111.838,161.424 139.798,145.281 111.838,129.139 		"></polygon>
		<polygon fill-rule="evenodd" clip-rule="evenodd" fill="#C7C8CE" points="307.556,209.853 279.597,193.71 307.556,177.567 		"></polygon>
		<polygon fill-rule="evenodd" clip-rule="evenodd" fill="#BCBEC5" points="279.597,225.995 307.556,209.853 279.597,193.71 		"></polygon>
		<polygon fill-rule="evenodd" clip-rule="evenodd" fill="#B2B4BC" points="307.556,242.138 279.597,225.995 307.556,209.853 		"></polygon>
		<polygon fill-rule="evenodd" clip-rule="evenodd" fill="#A7AAB3" points="279.597,258.28 307.556,242.138 279.597,225.995 		"></polygon>
		<polygon fill-rule="evenodd" clip-rule="evenodd" fill="#DCDDE0" points="307.557,145.283 279.597,129.141 307.557,112.998 		"></polygon>
		<polygon fill-rule="evenodd" clip-rule="evenodd" fill="#D1D3D7" points="279.598,161.425 307.558,145.283 279.598,129.141 		"></polygon>
		<polygon fill-rule="evenodd" clip-rule="evenodd" fill="#DCDDE0" points="335.517,161.425 307.557,145.283 335.517,129.141 		"></polygon>
		<polygon fill-rule="evenodd" clip-rule="evenodd" fill="#D1D3D7" points="307.557,209.853 335.517,193.71 307.557,177.567 		"></polygon>
		<polygon fill-rule="evenodd" clip-rule="evenodd" fill="#C7C8CE" points="335.516,225.995 307.556,209.853 335.516,193.71 		"></polygon>
		<polygon fill-rule="evenodd" clip-rule="evenodd" fill="#BCBEC5" points="307.557,242.138 335.517,225.995 307.557,209.853 		"></polygon>
		<polygon fill-rule="evenodd" clip-rule="evenodd" fill="#F1F1F2" points="335.517,129.14 307.557,112.997 335.517,96.855 		"></polygon>
		<polygon fill-rule="evenodd" clip-rule="evenodd" fill="#E6E7E9" points="307.558,145.283 335.518,129.141 307.558,112.998 		"></polygon>
		<polygon fill-rule="evenodd" clip-rule="evenodd" fill="#737784" points="251.637,306.707 223.677,290.564 251.637,274.423 		"></polygon>
		<polygon fill-rule="evenodd" clip-rule="evenodd" fill="#6A6E7A" points="223.677,322.85 251.637,306.707 223.677,290.564 		"></polygon>
		<polygon fill-rule="evenodd" clip-rule="evenodd" fill="#616570" points="195.718,306.707 223.678,322.85 223.678,290.564 		"></polygon>
		<polygon fill-rule="evenodd" clip-rule="evenodd" fill="#585B65" points="195.717,338.992 195.717,306.707 223.677,322.85 		"></polygon>
		<polygon fill-rule="evenodd" clip-rule="evenodd" fill="#4F525B" points="167.758,322.85 195.718,338.993 195.718,306.708 		"></polygon>
		<polygon fill-rule="evenodd" clip-rule="evenodd" fill="#464850" points="167.757,355.135 167.757,322.85 195.716,338.993 		"></polygon>
		<polygon fill-rule="evenodd" clip-rule="evenodd" fill="#3C3F46" points="139.798,338.992 167.758,355.135 167.758,322.85 		"></polygon>
		<polygon fill-rule="evenodd" clip-rule="evenodd" fill="#737784" points="223.677,290.564 195.717,274.423 223.677,258.279 		"></polygon>
		<polygon fill-rule="evenodd" clip-rule="evenodd" fill="#6A6E7A" points="195.717,306.707 223.677,290.564 195.717,274.422 		"></polygon>
		<polygon fill-rule="evenodd" clip-rule="evenodd" fill="#616570" points="167.758,290.564 195.718,306.708 195.718,274.423 		"></polygon>
		<polygon fill-rule="evenodd" clip-rule="evenodd" fill="#585B65" points="167.757,322.85 167.757,290.564 195.717,306.708 		"></polygon>
		<polygon fill-rule="evenodd" clip-rule="evenodd" fill="#4F525B" points="139.798,306.707 167.758,322.85 167.758,290.564 		"></polygon>
		<polygon fill-rule="evenodd" clip-rule="evenodd" fill="#464850" points="139.797,338.992 139.797,306.707 167.758,322.85 		"></polygon>
		<polygon fill-rule="evenodd" clip-rule="evenodd" fill="#3C3F46" points="111.838,322.85 139.798,338.993 139.798,306.708 		"></polygon>
		<polygon fill-rule="evenodd" clip-rule="evenodd" fill="#9DA0A9" points="251.637,242.138 279.597,258.279 279.597,225.994 		"></polygon>
		<polygon fill-rule="evenodd" clip-rule="evenodd" fill="#9296A0" points="251.637,274.422 251.637,242.138 279.597,258.279 		"></polygon>
		<polygon fill-rule="evenodd" clip-rule="evenodd" fill="#888C97" points="223.677,258.279 251.637,274.423 251.637,242.138 		"></polygon>
		<polygon fill-rule="evenodd" clip-rule="evenodd" fill="#7D818E" points="223.677,290.564 223.677,258.279 251.637,274.422 		"></polygon>
		<polygon fill-rule="evenodd" clip-rule="evenodd" fill="#B2B4BC" points="335.516,258.28 307.556,242.138 335.516,225.995 		"></polygon>
		<polygon fill-rule="evenodd" clip-rule="evenodd" fill="#A7AAB3" points="307.557,274.423 335.517,258.279 307.557,242.138 		"></polygon>
		<polygon fill-rule="evenodd" clip-rule="evenodd" fill="#9DA0A9" points="279.597,258.28 307.557,274.423 307.557,242.138 		"></polygon>
		<polygon fill-rule="evenodd" clip-rule="evenodd" fill="#9296A0" points="279.596,290.565 279.596,258.28 307.556,274.422 		"></polygon>
		<polygon fill-rule="evenodd" clip-rule="evenodd" fill="#888C97" points="251.637,274.423 279.597,290.565 279.597,258.279 		"></polygon>
		<polygon fill-rule="evenodd" clip-rule="evenodd" fill="#7D818E" points="251.637,306.708 251.637,274.423 279.597,290.564 		"></polygon>
		<polygon fill-rule="evenodd" clip-rule="evenodd" fill="#80B7D5" points="27.959,209.853 55.919,193.71 27.959,177.567 		"></polygon>
		<polygon fill-rule="evenodd" clip-rule="evenodd" fill="#63A6CB" points="55.918,225.995 27.959,209.853 55.918,193.71 		"></polygon>
		<polygon fill-rule="evenodd" clip-rule="evenodd" fill="#4595C2" points="27.959,242.138 55.919,225.996 27.959,209.853 		"></polygon>
		<polygon fill-rule="evenodd" clip-rule="evenodd" fill="#63A6CB" points="55.918,258.28 27.959,242.138 55.918,225.995 		"></polygon>
		<polygon fill-rule="evenodd" clip-rule="evenodd" fill="#9EC8DF" points="27.959,145.283 55.919,129.14 27.959,112.998 		"></polygon>
		<polygon fill-rule="evenodd" clip-rule="evenodd" fill="#8FBFDA" points="55.919,161.426 27.959,145.284 55.919,129.141 		"></polygon>
		<polygon fill-rule="evenodd" clip-rule="evenodd" fill="#9EC8DF" points="-0.001,161.426 27.958,145.284 -0.001,129.141 		"></polygon>
		<polygon fill-rule="evenodd" clip-rule="evenodd" fill="#8FBFDA" points="27.958,209.853 -0.002,193.71 27.958,177.567 		"></polygon>
		<polygon fill-rule="evenodd" clip-rule="evenodd" fill="#80B7D5" points="-0.001,225.995 27.959,209.854 -0.001,193.71 		"></polygon>
		<polygon fill-rule="evenodd" clip-rule="evenodd" fill="#63A6CB" points="27.958,242.138 -0.002,225.996 27.958,209.853 		"></polygon>
		<polygon fill-rule="evenodd" clip-rule="evenodd" fill="#BBD8E9" points="-0.001,129.141 27.958,112.998 -0.001,96.855 		"></polygon>
		<polygon fill-rule="evenodd" clip-rule="evenodd" fill="#ACD0E4" points="27.959,145.283 0,129.141 27.959,112.998 		"></polygon>
		<polygon fill-rule="evenodd" clip-rule="evenodd" fill="#3C8BB7" points="83.878,306.707 111.838,290.564 83.878,274.423 		"></polygon>
		<polygon fill-rule="evenodd" clip-rule="evenodd" fill="#2E698A" points="111.838,290.564 139.797,274.423 111.838,258.279 		"></polygon>
		<polygon fill-rule="evenodd" clip-rule="evenodd" fill="#549EC6" points="83.877,242.138 55.918,258.279 55.918,225.994 		"></polygon>
		<polygon fill-rule="evenodd" clip-rule="evenodd" fill="#4595C2" points="83.878,274.422 83.878,242.138 55.917,258.279 		"></polygon>
		<polygon fill-rule="evenodd" clip-rule="evenodd" fill="#2E698A" points="111.837,258.279 83.877,274.423 83.877,242.138 		"></polygon>
		<polygon fill-rule="evenodd" clip-rule="evenodd" fill="#3780A8" points="111.837,290.564 111.837,258.279 83.877,274.422 		"></polygon>
		<polygon fill-rule="evenodd" clip-rule="evenodd" fill="#4595C2" points="-0.001,258.28 27.959,242.138 -0.001,225.995 		"></polygon>
		<polygon fill-rule="evenodd" clip-rule="evenodd" fill="#63A6CB" points="27.958,274.423 -0.002,258.279 27.958,242.138 		"></polygon>
		<polygon fill-rule="evenodd" clip-rule="evenodd" fill="#549EC6" points="55.918,258.28 27.958,274.423 27.958,242.138 		"></polygon>
		<polygon fill-rule="evenodd" clip-rule="evenodd" fill="#4595C2" points="55.918,290.565 55.918,258.28 27.959,274.422 		"></polygon>
		<polygon fill-rule="evenodd" clip-rule="evenodd" fill="#549EC6" points="83.878,274.423 55.917,290.565 55.917,258.279 		"></polygon>
		<polygon fill-rule="evenodd" clip-rule="evenodd" fill="#4595C2" points="83.878,306.708 83.878,274.423 55.918,290.564 		"></polygon>
		<polygon fill-rule="evenodd" clip-rule="evenodd" fill="#337599" points="223.677,225.995 195.717,209.853 223.677,193.71 		"></polygon>
		<polygon fill-rule="evenodd" clip-rule="evenodd" fill="#2E698A" points="195.718,242.138 223.678,225.995 195.718,209.853 		"></polygon>
		<polygon fill-rule="evenodd" clip-rule="evenodd" fill="#295E7C" points="167.758,225.995 195.718,242.137 195.718,209.853 		"></polygon>
		<polygon fill-rule="evenodd" clip-rule="evenodd" fill="#24536D" points="167.757,258.28 167.757,225.995 195.717,242.138 		"></polygon>
		<polygon fill-rule="evenodd" clip-rule="evenodd" fill="#1F485E" points="139.798,242.138 167.758,258.279 167.758,225.995 		"></polygon>
		<polygon fill-rule="evenodd" clip-rule="evenodd" fill="#24536D" points="139.798,274.423 139.798,242.138 167.758,258.279 		"></polygon>
		<polygon fill-rule="evenodd" clip-rule="evenodd" fill="#295E7C" points="111.838,258.28 139.797,274.423 139.797,242.138 		"></polygon>
		<polygon fill-rule="evenodd" clip-rule="evenodd" fill="#337599" points="195.717,209.853 167.757,193.71 195.717,177.567 		"></polygon>
		<polygon fill-rule="evenodd" clip-rule="evenodd" fill="#2E698A" points="167.758,225.995 195.718,209.853 167.758,193.71 		"></polygon>
		<polygon fill-rule="evenodd" clip-rule="evenodd" fill="#295E7C" points="139.798,209.853 167.758,225.995 167.758,193.71 		"></polygon>
		<polygon fill-rule="evenodd" clip-rule="evenodd" fill="#24536D" points="139.797,242.138 139.797,209.853 167.758,225.995 		"></polygon>
		<polygon fill-rule="evenodd" clip-rule="evenodd" fill="#1F485E" points="111.838,225.995 139.797,242.137 139.797,209.853 		"></polygon>
		<polygon fill-rule="evenodd" clip-rule="evenodd" fill="#24536D" points="111.838,258.279 111.838,225.995 139.798,242.138 		"></polygon>
		<polygon fill-rule="evenodd" clip-rule="evenodd" fill="#295E7C" points="83.878,242.138 111.838,258.279 111.838,225.995 		"></polygon>
		<polygon fill-rule="evenodd" clip-rule="evenodd" fill="#549EC6" points="223.679,129.14 251.639,145.282 251.639,112.998 		"></polygon>
		<polygon fill-rule="evenodd" clip-rule="evenodd" fill="#4595C2" points="223.678,161.425 223.678,129.14 251.638,145.283 		"></polygon>
		<polygon fill-rule="evenodd" clip-rule="evenodd" fill="#3C8BB7" points="195.719,145.283 223.679,161.425 223.679,129.14 		"></polygon>
		<polygon fill-rule="evenodd" clip-rule="evenodd" fill="#3780A8" points="195.718,209.853 195.718,177.567 223.678,193.709 		"></polygon>
		<polygon fill-rule="evenodd" clip-rule="evenodd" fill="#3C8BB7" points="223.677,193.71 251.637,209.853 251.637,177.567 		"></polygon>
		<polygon fill-rule="evenodd" clip-rule="evenodd" fill="#3780A8" points="223.677,225.995 223.677,193.71 251.637,209.853 		"></polygon>
		<polygon fill-rule="evenodd" clip-rule="evenodd" fill="#CAE1ED" points="335.517,64.57 307.558,48.428 335.517,32.285 		"></polygon>
		<polygon fill-rule="evenodd" clip-rule="evenodd" fill="#BBD8E9" points="307.558,80.712 335.517,64.57 307.558,48.427 		"></polygon>
		<polygon fill-rule="evenodd" clip-rule="evenodd" fill="#ACD0E4" points="279.598,64.57 307.558,80.712 307.558,48.428 		"></polygon>
		<polygon fill-rule="evenodd" clip-rule="evenodd" fill="#9EC8DF" points="279.598,96.855 279.598,64.57 307.558,80.713 		"></polygon>
		<polygon fill-rule="evenodd" clip-rule="evenodd" fill="#8FBFDA" points="251.638,80.712 279.598,96.854 279.598,64.569 		"></polygon>
		<polygon fill-rule="evenodd" clip-rule="evenodd" fill="#80B7D5" points="251.638,112.998 251.638,80.712 279.598,96.855 		"></polygon>
		<polygon fill-rule="evenodd" clip-rule="evenodd" fill="#71AED0" points="223.679,96.855 251.639,112.997 251.639,80.713 		"></polygon>
		<polygon fill-rule="evenodd" clip-rule="evenodd" fill="#CAE1ED" points="307.558,48.427 279.597,32.285 307.558,16.142 		"></polygon>
		<polygon fill-rule="evenodd" clip-rule="evenodd" fill="#BBD8E9" points="279.598,64.57 307.558,48.428 279.598,32.285 		"></polygon>
		<polygon fill-rule="evenodd" clip-rule="evenodd" fill="#ACD0E4" points="251.638,48.427 279.598,64.569 279.598,32.284 		"></polygon>
		<polygon fill-rule="evenodd" clip-rule="evenodd" fill="#9EC8DF" points="251.638,80.712 251.638,48.427 279.598,64.57 		"></polygon>
		<polygon fill-rule="evenodd" clip-rule="evenodd" fill="#8FBFDA" points="223.679,64.57 251.639,80.712 251.639,48.428 		"></polygon>
		<polygon fill-rule="evenodd" clip-rule="evenodd" fill="#80B7D5" points="223.678,96.854 223.678,64.57 251.638,80.713 		"></polygon>
		<polygon fill-rule="evenodd" clip-rule="evenodd" fill="#71AED0" points="195.719,80.712 223.679,96.854 223.679,64.569 		"></polygon>
		<polygon fill-rule="evenodd" clip-rule="evenodd" fill="#E7F2F7" points="307.558,16.142 335.518,32.285 335.518,0 		"></polygon>
		<polygon fill-rule="evenodd" clip-rule="evenodd" fill="#D9E9F2" points="307.558,48.427 307.558,16.142 335.518,32.285 		"></polygon>
		<polygon fill-rule="evenodd" clip-rule="evenodd" fill="#DCDDE0" points="0,64.57 27.96,48.428 0,32.285 		"></polygon>
		<polygon fill-rule="evenodd" clip-rule="evenodd" fill="#D1D3D7" points="27.959,80.712 -0.001,64.57 27.959,48.427 		"></polygon>
		<polygon fill-rule="evenodd" clip-rule="evenodd" fill="#C7C8CE" points="55.919,64.57 27.959,80.712 27.959,48.428 		"></polygon>
		<polygon fill-rule="evenodd" clip-rule="evenodd" fill="#BCBEC5" points="55.919,96.855 55.919,64.57 27.959,80.713 		"></polygon>
		<polygon fill-rule="evenodd" clip-rule="evenodd" fill="#B2B4BC" points="83.879,80.712 55.919,96.854 55.919,64.569 		"></polygon>
		<polygon fill-rule="evenodd" clip-rule="evenodd" fill="#9CA0A9" points="83.879,112.998 83.879,80.712 55.919,96.855 		"></polygon>
		<polygon fill-rule="evenodd" clip-rule="evenodd" fill="#9296A0" points="111.839,96.855 83.879,112.997 83.879,80.713 		"></polygon>
		<polygon fill-rule="evenodd" clip-rule="evenodd" fill="#DCDDE0" points="27.96,48.427 55.92,32.285 27.96,16.142 		"></polygon>
		<polygon fill-rule="evenodd" clip-rule="evenodd" fill="#D1D3D7" points="55.919,64.57 27.959,48.428 55.919,32.285 		"></polygon>
		<polygon fill-rule="evenodd" clip-rule="evenodd" fill="#C7C8CE" points="83.879,48.427 55.919,64.569 55.919,32.284 		"></polygon>
		<polygon fill-rule="evenodd" clip-rule="evenodd" fill="#BCBEC5" points="83.879,80.712 83.879,48.427 55.919,64.57 		"></polygon>
		<polygon fill-rule="evenodd" clip-rule="evenodd" fill="#B2B4BC" points="111.839,64.57 83.879,80.712 83.879,48.428 		"></polygon>
		<polygon fill-rule="evenodd" clip-rule="evenodd" fill="#9CA0A9" points="111.839,96.854 111.839,64.57 83.879,80.713 		"></polygon>
		<polygon fill-rule="evenodd" clip-rule="evenodd" fill="#9296A0" points="139.798,80.712 111.838,96.854 111.838,64.569 		"></polygon>
		<polygon fill-rule="evenodd" clip-rule="evenodd" fill="#F1F1F2" points="27.959,16.142 0,32.285 0,0 		"></polygon>
		<polygon fill-rule="evenodd" clip-rule="evenodd" fill="#E6E7E9" points="27.959,48.427 27.959,16.142 -0.001,32.285 		"></polygon>
		<polygon fill-rule="evenodd" clip-rule="evenodd" fill="#6A6E7A" points="83.878,209.853 111.839,193.709 83.878,177.567 		"></polygon>
		<polygon fill-rule="evenodd" clip-rule="evenodd" fill="#888C97" points="111.839,129.14 83.879,112.998 111.839,96.855 		"></polygon>
		<polygon fill-rule="evenodd" clip-rule="evenodd" fill="#7D828E" points="83.879,145.282 111.839,129.14 83.879,112.997 		"></polygon>
		<polygon fill-rule="evenodd" clip-rule="evenodd" fill="#737884" points="139.798,145.282 111.838,129.14 139.798,112.997 		"></polygon>
		<polygon fill-rule="evenodd" clip-rule="evenodd" fill="#888C97" points="139.798,112.998 111.838,96.855 139.798,80.712 		"></polygon>
		<polygon fill-rule="evenodd" clip-rule="evenodd" fill="#7D828E" points="111.839,129.14 139.799,112.998 111.839,96.855 		"></polygon>
		<polygon fill-rule="evenodd" clip-rule="evenodd" fill="#63A6CB" points="223.679,129.14 251.639,112.998 223.679,96.855 		"></polygon>
		<polygon fill-rule="evenodd" clip-rule="evenodd" fill="#4595C2" points="195.719,145.282 223.679,129.14 195.719,112.997 		"></polygon>
		<polygon fill-rule="evenodd" clip-rule="evenodd" fill="#63A6CB" points="195.719,112.998 223.679,96.855 195.719,80.712 		"></polygon>
		<polygon fill-rule="evenodd" clip-rule="evenodd" fill="#549EC6" points="223.679,129.14 195.718,112.998 223.679,96.855 		"></polygon>
		<polygon fill-rule="evenodd" clip-rule="evenodd" fill="#4595C2" points="195.719,177.566 195.719,145.282 223.679,161.425 		"></polygon>
		<polygon fill-rule="evenodd" clip-rule="evenodd" fill="#3C8BB7" points="223.679,161.425 251.639,177.567 251.639,145.282 		"></polygon>
		<polygon fill-rule="evenodd" clip-rule="evenodd" fill="#4595C2" points="223.679,193.71 223.679,161.425 251.639,177.567 		"></polygon>
		<polygon fill-rule="evenodd" clip-rule="evenodd" fill="#3C8BB7" points="223.678,193.71 195.718,177.567 223.678,161.425 		"></polygon>
		<polygon fill-rule="evenodd" clip-rule="evenodd" fill="#6A6E7A" points="111.838,193.709 139.798,177.567 111.838,161.424 		"></polygon>
		<polygon fill-rule="evenodd" clip-rule="evenodd" fill="#737884" points="111.838,193.71 83.878,177.566 111.838,161.424 		"></polygon>
		<polygon fill-rule="evenodd" clip-rule="evenodd" fill="#7D828E" points="83.878,177.566 111.838,161.425 83.878,145.282 		"></polygon>
		<polygon fill-rule="evenodd" clip-rule="evenodd" fill="#737884" points="139.797,177.566 111.837,161.425 139.797,145.282 		"></polygon>
		<polygon fill-rule="evenodd" clip-rule="evenodd" fill="#80B7D5" points="27.959,177.567 55.919,161.426 27.959,145.283 		"></polygon>
		<polygon fill-rule="evenodd" clip-rule="evenodd" fill="#8FBFDA" points="27.959,177.567 0,161.425 27.959,145.283 		"></polygon>
		<polygon fill-rule="evenodd" clip-rule="evenodd" fill="#63A6CB" points="55.919,193.711 27.959,177.569 55.919,161.426 		"></polygon>
		<polygon fill-rule="evenodd" clip-rule="evenodd" fill="#80B7D5" points="-0.001,193.711 27.958,177.569 -0.001,161.426 		"></polygon>
		<polygon fill-rule="evenodd" clip-rule="evenodd" fill="#C7C8CE" points="307.558,177.567 279.597,161.426 307.558,145.283 		"></polygon>
		<polygon fill-rule="evenodd" clip-rule="evenodd" fill="#D1D3D7" points="307.558,177.567 335.517,161.425 307.558,145.283 		"></polygon>
		<polygon fill-rule="evenodd" clip-rule="evenodd" fill="#BCBEC5" points="279.598,193.71 307.558,177.567 279.598,161.425 		"></polygon>
		<polygon fill-rule="evenodd" clip-rule="evenodd" fill="#C7C8CE" points="335.517,193.71 307.558,177.567 335.517,161.426 		"></polygon>
	</g>
</g>
</svg>