<?xml version="1.0" encoding="utf-8"?>
<!-- Generator: Adobe Illustrator 16.0.0, SVG Export Plug-In . SVG Version: 6.00 Build 0)  -->
<!DOCTYPE svg PUBLIC "-//W3C//DTD SVG 1.1//EN" "http://www.w3.org/Graphics/SVG/1.1/DTD/svg11.dtd">
<svg version="1.1" id="Layer_1" xmlns="http://www.w3.org/2000/svg" xmlns:xlink="http://www.w3.org/1999/xlink" x="0px" y="0px"
	 width="388px" height="150px" viewBox="-91.037 71.38 517.073 200.001"
	 enable-background="new -91.037 71.38 517.073 200.001" xml:space="preserve">
<g id="swarm-logo">
	<g>
		<path fill="#FFFFFF" d="M202.088,242.637l-39.603-51.72V268.1h13.162V228.91l26.441,34.414l26.326-34.414V268.1h13.277v-77.183
			L202.088,242.637z M113.237,232.79v-28.048h11.802c5.446,0,9.531,1.293,12.142,3.878c3.175,2.983,3.744,7.163,3.744,10.147
			c0,2.883-0.569,7.061-3.744,10.043c-2.611,2.586-6.696,3.979-12.142,3.979H113.237L113.237,232.79z M146.03,235.774
			c4.428-4.276,6.811-10.245,6.811-17.007c0-6.865-2.383-12.831-6.811-17.109c-3.403-3.38-9.871-7.359-20.991-7.359h-24.964V268.1
			h13.162v-24.967h9.646l21.22,24.967h14.863l-22.694-26.658C140.813,240.051,143.99,237.764,146.03,235.774L146.03,235.774z
			 M49.581,241.94l10.212-22.479l10.212,22.479H49.581z M23.142,268.1h14.524l7.148-15.816h29.956l7.15,15.816h14.411l-36.54-77.183
			L23.142,268.1z M-30.668,194.299h-14.524l38.583,77.082l20.879-44.459l10.624,21.234l6.641-14.766L21.19,212.104l-7.375-15.019
			l-6.809,15.216l-13.959,30.635L-30.668,194.299z M-50.64,233.287c-1.816-1.492-4.311-3.58-6.354-5.37l-14.07-11.837
			c-3.519-2.984-3.63-5.271-3.177-6.662c0.681-2.09,3.177-3.781,6.127-4.277c2.384-0.398,6.809-0.398,11.12,4.176l10.326-7.26
			c-3.29-3.48-7.148-5.968-11.459-7.459c-4.086-1.293-8.397-1.591-12.483-0.796c-3.746,0.596-7.263,2.089-10.099,4.177
			c-3.063,2.288-5.221,5.073-6.242,8.256c-1.021,2.984-0.906,6.266,0.229,9.35c1.134,3.184,3.29,6.166,6.467,8.851l10.327,8.554
			c0.453,0.398,6.58,5.669,10.326,8.753c2.383,1.989,4.993,4.972,3.857,8.354c-1.021,2.984-4.539,5.472-8.851,6.168
			c-2.496,0.495-5.22,0.298-7.717-0.599c-3.063-0.992-5.899-2.982-8.283-5.768l-10.441,7.162c3.972,4.475,8.625,7.559,13.958,9.447
			c3.177,1.096,6.582,1.594,9.987,1.594c1.702,0,3.404-0.102,5.105-0.398c9.192-1.592,16.568-7.261,18.951-14.422
			c1.136-3.384,1.021-6.963-0.228-10.345C-44.511,239.453-47.008,236.172-50.64,233.287L-50.64,233.287z"/>
		<path fill="#FFAF03" d="M276.236,200.771l-38.771-35.046l79.751-73.956l92.029-0.277L276.236,200.771z M283.724,207.463
			l25.525-21.385l-0.175,47.258L283.724,207.463z M235.531,87.835l34.739,34.6l-34.669,32.769L235.531,87.835z M225.368,108.694
			l-20.811,0.115l21.041-21.043L225.368,108.694z M423.77,82.939c-33.288,0.171-108.14-1.036-110.383-0.173l-35.7,33.46
			l-43.811-43.464c0,0-0.343-1.438-3.792-1.38c-1.609,0.026-2.588,0.863-2.588,0.863l-38.117,38.288c0,0-1.495,1.609-1.207,3.45
			c0.404,2.576,3.104,3.45,3.104,3.45l34.323,0.172c0,0-0.8,47.901,0.174,49.844c0.977,1.954,84.509,79.856,84.509,79.856
			s1.571,1.642,3.278,1.897c3.45,0.517,4.312-3.104,4.312-3.104l0.345-67.957c0,0,74.68-61.228,105.554-86.753
			c0.908-0.751,1.955,0.167,2.241-4.138C426.182,84.663,425.504,82.93,423.77,82.939L423.77,82.939z"/>
	</g>
</g>
</svg>
