<?xml version="1.0" encoding="utf-8"?>
<!-- Generator: Adobe Illustrator 16.0.0, SVG Export Plug-In . SVG Version: 6.00 Build 0)  -->
<!DOCTYPE svg PUBLIC "-//W3C//DTD SVG 1.1//EN" "http://www.w3.org/Graphics/SVG/1.1/DTD/svg11.dtd">
<svg version="1.1" xmlns="http://www.w3.org/2000/svg" xmlns:xlink="http://www.w3.org/1999/xlink" x="0px" y="0px" width="700px"
	 height="400px" viewBox="-182.5 -28.619 1400 800" enable-background="new -182.5 -28.619 1400 800" xml:space="preserve">
<g id="Layer_2">
	<rect x="-182.5" y="-28.619" fill="#FFFFFF" width="1400" height="800"/>
</g>
<g id="swarm-logo">
	<g>
		<path d="M586.676,513.893l-79.206-103.44v154.366h26.324V486.44l52.882,68.827l52.651-68.827v78.378h26.554V410.452
			L586.676,513.893z M408.974,494.199v-56.096h23.604c10.893,0,19.063,2.585,24.284,7.756c6.351,5.968,7.488,14.325,7.488,20.294
			c0,5.766-1.138,14.123-7.488,20.088c-5.221,5.171-13.391,7.958-24.284,7.958H408.974z M474.561,500.168
			c8.856-8.554,13.622-20.49,13.622-34.015c0-13.728-4.766-25.661-13.622-34.218c-6.806-6.759-19.742-14.718-41.982-14.718h-49.929
			v147.6h26.324v-49.933h19.293l42.44,49.933h29.727l-45.388-53.315C464.126,508.722,470.48,504.146,474.561,500.168
			L474.561,500.168z M281.662,512.5l20.424-44.958l20.425,44.958H281.662z M228.783,564.817h29.049l14.297-31.632h59.912
			l14.301,31.632h28.822l-73.079-154.365L228.783,564.817z M121.163,417.218H92.114l77.166,154.163l41.758-88.918l21.247,42.469
			l13.282-29.533l-20.686-42.574l-14.75-30.037l-13.618,30.433l-27.918,61.268L121.163,417.218z M81.22,495.193
			c-3.632-2.984-8.622-7.161-12.708-10.74l-28.14-23.673c-7.037-5.969-7.261-10.544-6.354-13.325
			c1.361-4.181,6.354-7.563,12.254-8.554c4.769-0.798,13.618-0.798,22.24,8.351l20.652-14.519
			c-6.579-6.962-14.297-11.937-22.919-14.92c-8.173-2.586-16.795-3.181-24.966-1.592c-7.491,1.192-14.525,4.177-20.197,8.354
			c-6.127,4.576-10.441,10.146-12.484,16.513c-2.043,5.968-1.813,12.531,0.458,18.698c2.268,6.367,6.579,12.332,12.933,17.702
			l20.655,17.107c0.906,0.797,13.16,11.338,20.651,17.506c4.766,3.98,9.986,9.945,7.715,16.708
			c-2.043,5.968-9.077,10.942-17.702,12.335c-4.993,0.99-10.441,0.595-15.434-1.196c-6.127-1.984-11.799-5.965-16.565-11.537
			L0.426,542.736c7.943,8.949,17.25,15.116,27.916,18.895c6.354,2.19,13.164,3.188,19.973,3.188c3.404,0,6.809-0.203,10.21-0.798
			c18.384-3.184,33.136-14.521,37.902-28.844c2.271-6.767,2.043-13.924-0.455-20.689C93.478,507.525,88.484,500.962,81.22,495.193
			L81.22,495.193z"/>
		<path fill="#FFAF03" d="M734.972,430.161l-77.543-70.091l159.502-147.912l184.06-0.555L734.972,430.161z M749.947,443.546
			l51.051-42.771l-0.35,94.515L749.947,443.546z M653.563,204.29l69.478,69.2l-69.338,65.538L653.563,204.29z M633.235,246.008
			l-41.621,0.23l42.082-42.086L633.235,246.008z M1030.04,194.497c-66.578,0.343-216.28-2.071-220.766-0.346l-71.4,66.92
			l-87.622-86.928c0,0-0.686-2.875-7.585-2.76c-3.218,0.053-5.177,1.726-5.177,1.726l-76.234,76.577c0,0-2.99,3.218-2.414,6.899
			c0.807,5.152,6.208,6.9,6.208,6.9l68.646,0.345c0,0-1.599,95.802,0.349,99.687c1.953,3.909,169.018,159.713,169.018,159.713
			s3.143,3.283,6.557,3.795c6.9,1.033,8.623-6.208,8.623-6.208l0.688-135.913c0,0,149.36-122.456,211.109-173.506
			c1.816-1.502,3.909,0.333,4.482-8.276C1034.864,197.945,1033.507,194.479,1030.04,194.497L1030.04,194.497z"/>
	</g>
</g>
</svg>
