<?xml version="1.0" encoding="utf-8"?>
<!-- Generator: Adobe Illustrator 16.0.0, SVG Export Plug-In . SVG Version: 6.00 Build 0)  -->
<!DOCTYPE svg PUBLIC "-//W3C//DTD SVG 1.1//EN" "http://www.w3.org/Graphics/SVG/1.1/DTD/svg11.dtd">
<svg version="1.1" id="Layer_1" xmlns="http://www.w3.org/2000/svg" xmlns:xlink="http://www.w3.org/1999/xlink" x="0px" y="0px"
	 width="22px" height="22px" viewBox="353.721 440.402 22 22" enable-background="new 353.721 440.402 22 22" xml:space="preserve">
<g id="Layer_1_1_">
	<path fill="#F15B46" d="M374.625,451.625L374.625,451.625V451.1v-0.3v-0.225V450.2l-0.15,0.146l-0.146-0.521L373.8,449.3
		l-0.3-0.675l-0.3-0.15l-0.075,0.15l-0.15-0.3l-0.146-0.525l-0.15-0.3l-0.146-0.3l-0.304-0.15l-0.146-0.3l-0.375-0.075l-0.3-0.3
		L371.25,446l-0.075-0.75l-0.146-0.15l-0.15-0.521v-0.45l-0.15-0.3l-0.3-0.3h-0.146l-0.15,0.146l-0.3-0.521l-0.075-0.525l-0.149-0.3
		l0,0l-0.147-0.075v-0.524l-0.15-0.147l-0.147,0.147l-0.074,0.149v0.375l-0.149,0.3v0.3l-0.073,0.375l-0.149,0.45v0.375l0.074,0.3
		l-0.149,0.304v0.521l-0.147,0.3l-0.075,0.304l-0.3,0.146l-0.45-0.146l-0.3-0.304l-0.301-0.071l-0.375-0.304l-0.302-0.146
		l-0.601-0.45l-0.3-0.149l0.3-0.822v-0.303l0.301-0.072l0.3-0.525l-0.147-0.3l-0.149,0.075l-0.148-0.15l-0.302,0.375l-0.147-0.147
		l-0.382-0.078l-0.449-0.15l-0.301-0.075l-0.301-0.146l-0.523-0.075l0.301,0.147l0.148,0.303l-0.148,0.146l-0.301,0.075
		l-0.375-0.075l-0.301,0.15l-0.148,0.147l-0.148,0.149l0.148,0.3l-0.301,0.15v0.146l-0.149,0.303l0.149,0.147v0.3l-0.149-0.072
		l-0.3-0.149l-0.148,0.149l-0.074,0.301l-0.075,0.074v-0.524l-0.3-0.075l-0.149-0.3l-0.148-0.149l-0.301,0.074l-0.148,0.301
		l-0.301,0.149l-0.149-0.149l-0.3,0.149l-0.149,0.524l-0.148,0.147l0.148,0.3l-0.073,0.303l-0.375,0.147l-0.149-0.075l-0.075,0.15
		l0.149,0.3l-0.074,0.3l-0.301-0.448l-0.149-0.302l-0.147,0.15l-0.149,0.3l0.074,0.3l0.147,0.302l-0.375,0.448l-0.147,0.45
		l-0.3,0.149l-0.301,0.074l-0.301,0.148l-0.301,0.075l-0.148,0.375l-0.301-0.15l-0.301,0.375l-0.3-0.073l-0.301,0.301L355.364,449
		H355.2l-0.15,0.375l-0.146,0.3l-0.304-0.148v0.302l-0.071,0.146l0.146,0.375l-0.075,0.375l0.075,0.302l0.3,0.375l0.304,0.148
		L355.2,452l-0.3-0.15l0.071,0.304l-0.146-0.075l0.3,0.45l0.15,0.3l0.3,0.521l0.3,0.304l0.375,0.146v0.525l0.15,0.375l0.521,0.675
		v0.375L357,456.2l-0.15,0.146l0.15,0.304l0.3,0.146l0.375,0.15l0.825-0.15l0.525-0.3l0.146-0.15l0.375-0.146l0.375-0.075l0.15,0.15
		l0.3-0.15h0.149l0.301-0.15l0.074-0.375l0.072-0.146l0.604-0.45l0.449,0.075l0.822-0.375l0.15-0.15l0.45-0.146l0.449,0.072
		l0.147-0.072l0.3,0.146l0.303,0.15h0.301l0.3,0.075l0.3,0.446l0.15,0.075l0.073,0.15l0.302,0.521l0.375,0.15l0.073-0.15l0.148-0.3
		l0.15-0.146l0.3-0.15l-0.075-0.3l0.075-0.15l0.3-0.146l-0.075,0.446l-0.3,0.679l-0.149,0.3h0.449l0.075-0.525l0.15,0.15v0.375
		l-0.15,0.3h0.15l0.3-0.147l0.3,0.447l0.15,0.375l0.072,0.303L369,458h0.525l0.3,0.15l0.3,0.146l0.45-0.3l0.075-0.15l0.071,0.304
		h0.15l0.375,0.3l0.375-0.15L372,458l0.3-0.075l0.3,0.075l0.375-0.15l0.15-0.3v-0.147l0.075-0.45l0.146-0.525l0.15-0.45l0.149-0.146
		l0.147-0.3l0.301-0.45l0.149-0.15l0.147-0.3l0.149-0.523v-0.523l0.15-0.15l0.072-0.3l0.149-0.148L374.625,451.625L374.625,451.625z
		 M371.55,459.35l-0.3,0.15l-0.3,0.15l-0.3-0.15l-0.304-0.15h-0.3v0.304l0.3,0.375v0.521l0.15,0.375l0.15,0.3h0.3l0.075-0.3
		l0.146-0.146h0.15v-0.45l0.146-0.3v-0.604L371.55,459.35L371.55,459.35z"/>
</g>
</svg>
