<?xml version="1.0" standalone="no"?>
<!DOCTYPE svg PUBLIC "-//W3C//DTD SVG 20010904//EN"
 "http://www.w3.org/TR/2001/REC-SVG-20010904/DTD/svg10.dtd">
<svg version="1.0" xmlns="http://www.w3.org/2000/svg"
 width="710.000000pt" height="710.000000pt" viewBox="0 0 710.000000 710.000000"
 preserveAspectRatio="xMidYMid meet">
<metadata>
Created by potrace 1.11, written by Peter Selinger 2001-2013
</metadata>
<g transform="translate(0.000000,710.000000) scale(0.100000,-0.100000)"
fill="#000000" stroke="none">
<path d="M202 6454 l3 -648 70 -41 c39 -23 90 -53 115 -67 25 -14 101 -58 170
-98 160 -93 167 -97 280 -161 52 -29 97 -56 100 -59 3 -3 21 -14 40 -24 19
-10 62 -35 95 -54 33 -19 80 -46 105 -60 25 -14 78 -45 118 -69 41 -24 78 -43
83 -43 5 0 9 -5 9 -10 0 -6 3 -9 8 -8 4 1 18 -5 32 -14 55 -35 152 -88 161
-88 5 0 9 -4 9 -10 0 -5 5 -10 10 -10 6 0 44 -20 84 -45 41 -25 79 -45 85 -45
6 0 11 -4 11 -10 0 -5 9 -10 20 -10 11 0 20 -4 20 -8 0 -5 10 -14 23 -19 l24
-11 -1 -966 c-1 -531 1 -966 4 -966 8 0 42 19 225 125 189 109 220 127 268
154 17 10 82 47 143 83 61 36 117 68 125 71 8 4 37 21 64 37 28 17 61 36 75
43 14 6 30 15 35 20 6 4 48 30 95 57 l85 49 1 969 1 969 -96 56 c-53 30 -113
65 -134 76 -44 24 -332 192 -380 222 -18 10 -39 22 -47 26 -8 4 -37 20 -65 36
-27 17 -63 38 -80 47 -16 10 -118 68 -225 130 -107 62 -215 124 -240 138 -25
14 -73 43 -108 64 -34 21 -64 38 -66 38 -2 0 -107 60 -233 133 -127 74 -236
137 -244 140 -8 4 -30 17 -49 28 -19 11 -98 57 -175 101 -77 44 -152 89 -167
99 -15 11 -32 19 -37 19 -5 0 -16 6 -23 13 -7 6 -27 19 -43 28 -17 9 -57 31
-90 49 -33 18 -67 39 -76 46 -8 8 -19 14 -22 14 -4 0 -24 10 -45 23 -20 13
-63 38 -95 56 l-57 33 2 -648z"/>
<path d="M6775 7024 c-71 -42 -148 -87 -170 -99 -53 -29 -164 -94 -195 -113
-14 -9 -27 -17 -30 -17 -5 -1 -91 -51 -275 -159 -38 -23 -81 -47 -95 -54 -49
-26 -86 -47 -117 -70 -18 -13 -33 -21 -33 -17 0 3 -19 -7 -42 -23 -24 -16 -72
-45 -108 -64 -36 -20 -105 -59 -155 -88 -49 -29 -164 -95 -255 -148 -91 -52
-233 -135 -317 -183 -84 -49 -157 -89 -162 -89 -5 0 -11 -3 -13 -8 -1 -4 -66
-43 -142 -87 -77 -44 -164 -95 -195 -113 -31 -18 -67 -38 -81 -44 -14 -7 -27
-15 -30 -19 -3 -3 -10 -8 -15 -10 -6 -2 -60 -33 -121 -68 l-111 -63 0 -963 c0
-529 -3 -966 -6 -972 -4 -6 -48 -34 -99 -63 -51 -29 -133 -77 -183 -105 -358
-209 -527 -305 -535 -305 -6 0 -10 -4 -10 -9 0 -5 -6 -11 -12 -13 -7 -2 -64
-32 -126 -68 -62 -36 -136 -78 -165 -95 -29 -16 -131 -75 -225 -130 -95 -55
-184 -107 -199 -115 -16 -8 -52 -30 -81 -48 -29 -17 -54 -32 -56 -32 -3 0 -50
-27 -106 -60 -56 -33 -103 -60 -106 -60 -2 0 -27 -15 -56 -33 -29 -19 -60 -37
-68 -41 -8 -4 -24 -12 -35 -19 -91 -55 -162 -91 -175 -88 -8 2 -52 25 -98 52
-45 27 -85 49 -89 49 -4 0 -14 6 -22 14 -9 7 -47 30 -86 51 -38 21 -81 45 -95
55 -14 9 -55 33 -92 54 l-68 37 -1 337 c-1 185 -1 340 -1 343 2 17 4 394 3
539 0 8 0 119 0 245 0 267 0 231 -3 368 l-3 108 -30 17 c-16 9 -33 21 -36 25
-3 5 -10 9 -15 9 -5 1 -18 6 -29 13 -62 38 -147 85 -156 85 -5 0 -9 5 -9 10 0
6 -6 10 -13 10 -7 0 -19 6 -26 13 -6 6 -15 12 -19 12 -12 1 -122 66 -128 76
-3 5 -14 9 -25 9 -10 0 -19 4 -19 10 0 5 -19 18 -42 29 -24 11 -77 41 -118 66
-41 25 -87 51 -102 58 -16 6 -28 15 -28 19 0 4 -5 8 -10 8 -6 0 -27 11 -48 23
-36 23 -77 47 -179 103 -27 15 -52 30 -57 35 -6 5 -14 9 -18 9 -4 0 -8 -726
-8 -1613 l0 -1613 86 -50 c48 -27 98 -56 113 -64 14 -8 61 -35 104 -60 43 -25
86 -49 95 -55 20 -12 112 -64 162 -93 19 -11 107 -61 195 -112 88 -51 214
-124 280 -162 66 -37 127 -72 135 -77 56 -36 191 -111 199 -111 5 0 11 -3 13
-8 2 -4 62 -41 133 -82 72 -40 137 -78 146 -83 12 -8 53 11 170 78 85 48 162
95 172 103 9 8 17 11 17 7 0 -4 8 -1 18 7 9 8 60 39 112 69 52 30 104 59 115
66 11 7 26 15 34 19 7 4 90 51 184 106 93 54 171 98 173 98 1 0 39 23 84 50
45 28 84 50 86 50 3 0 30 16 60 35 30 19 61 35 68 35 8 0 16 4 18 8 2 5 23 20
48 34 88 50 850 490 1050 606 19 11 58 33 85 47 28 15 57 33 66 41 8 8 18 14
22 14 3 0 83 45 177 100 95 55 176 100 181 100 5 0 9 3 9 8 0 4 19 16 43 27
23 11 47 23 52 28 16 13 268 157 274 157 3 0 17 9 29 18 l24 18 1 968 2 967
40 22 c22 12 42 25 43 30 2 4 7 7 12 7 6 0 115 60 180 100 8 5 114 66 235 136
265 152 478 275 561 323 34 20 77 45 95 55 19 11 117 68 219 126 102 59 201
116 220 126 19 11 37 22 38 27 2 4 10 7 18 7 12 0 14 96 14 650 0 358 -1 650
-2 650 -2 0 -61 -35 -133 -76z"/>
<path d="M6865 5142 c-16 -9 -32 -19 -35 -22 -3 -3 -52 -33 -110 -65 -58 -33
-117 -66 -131 -75 -14 -8 -76 -44 -137 -80 -62 -36 -124 -72 -139 -80 -16 -8
-50 -28 -78 -44 -27 -17 -51 -29 -53 -28 -1 1 -8 -3 -15 -9 -6 -6 -93 -57
-192 -114 l-180 -103 -5 -972 -5 -972 -45 -25 c-25 -14 -58 -34 -75 -43 -45
-26 -415 -240 -453 -261 -109 -62 -301 -175 -327 -190 -16 -11 -37 -22 -45
-26 -8 -4 -59 -33 -113 -65 -54 -32 -101 -58 -103 -58 -2 0 -23 -12 -47 -27
-23 -15 -67 -41 -97 -57 -30 -16 -83 -47 -118 -68 -34 -21 -65 -38 -69 -38 -3
0 -14 -6 -22 -14 -9 -7 -46 -30 -84 -50 -66 -36 -207 -117 -237 -136 -8 -5
-49 -29 -90 -52 -41 -24 -84 -48 -95 -55 -11 -7 -31 -18 -45 -25 -14 -6 -36
-19 -50 -29 -14 -9 -45 -27 -70 -41 -25 -14 -101 -58 -168 -97 -68 -39 -128
-71 -132 -71 -5 0 -10 -4 -12 -8 -1 -5 -28 -22 -58 -38 -30 -17 -72 -40 -92
-52 -21 -12 -53 -31 -70 -41 -218 -126 -333 -191 -340 -191 -4 0 -8 -3 -8 -7
0 -5 -10 -13 -23 -18 -31 -15 -111 -59 -117 -65 -5 -5 -20 -14 -89 -52 -20
-11 -40 -23 -44 -28 -7 -6 32 -32 183 -117 83 -48 356 -204 370 -213 8 -5 76
-44 150 -87 74 -43 143 -82 152 -88 68 -40 243 -141 249 -143 3 -1 216 119
473 268 257 148 472 270 477 270 5 0 9 4 9 9 0 5 8 11 18 14 9 3 44 22 77 42
33 19 71 41 85 47 14 7 27 15 30 18 6 6 13 10 183 107 65 38 133 76 150 87 28
16 507 292 599 345 18 10 89 51 158 91 69 40 144 83 167 96 23 13 150 87 283
164 133 77 245 140 250 140 4 0 10 3 12 8 2 4 21 17 43 29 22 12 109 62 193
110 l152 88 0 1612 c0 887 -3 1613 -7 1613 -5 0 -21 -8 -38 -18z"/>
</g>
</svg>
